<svg xmlns="http://www.w3.org/2000/svg" viewBox="0 0 100 100" preserveAspectRatio="xMidYMid" width="200" height="200" style="shape-rendering: auto; display: block; background: transparent;" xmlns:xlink="http://www.w3.org/1999/xlink"><g><g transform="rotate(0 50 50)">
  <rect fill="#a2d9bf" height="8" width="8" ry="4" rx="4" y="26" x="46">
    <animate repeatCount="indefinite" begin="-1.1538461538461537s" dur="1.25s" keyTimes="0;1" values="1;0" attributeName="opacity"></animate>
  </rect>
</g><g transform="rotate(27.692307692307693 50 50)">
  <rect fill="#a2d9bf" height="8" width="8" ry="4" rx="4" y="26" x="46">
    <animate repeatCount="indefinite" begin="-1.0576923076923077s" dur="1.25s" keyTimes="0;1" values="1;0" attributeName="opacity"></animate>
  </rect>
</g><g transform="rotate(55.38461538461539 50 50)">
  <rect fill="#a2d9bf" height="8" width="8" ry="4" rx="4" y="26" x="46">
    <animate repeatCount="indefinite" begin="-0.9615384615384615s" dur="1.25s" keyTimes="0;1" values="1;0" attributeName="opacity"></animate>
  </rect>
</g><g transform="rotate(83.07692307692308 50 50)">
  <rect fill="#a2d9bf" height="8" width="8" ry="4" rx="4" y="26" x="46">
    <animate repeatCount="indefinite" begin="-0.8653846153846153s" dur="1.25s" keyTimes="0;1" values="1;0" attributeName="opacity"></animate>
  </rect>
</g><g transform="rotate(110.76923076923077 50 50)">
  <rect fill="#a2d9bf" height="8" width="8" ry="4" rx="4" y="26" x="46">
    <animate repeatCount="indefinite" begin="-0.7692307692307692s" dur="1.25s" keyTimes="0;1" values="1;0" attributeName="opacity"></animate>
  </rect>
</g><g transform="rotate(138.46153846153845 50 50)">
  <rect fill="#a2d9bf" height="8" width="8" ry="4" rx="4" y="26" x="46">
    <animate repeatCount="indefinite" begin="-0.673076923076923s" dur="1.25s" keyTimes="0;1" values="1;0" attributeName="opacity"></animate>
  </rect>
</g><g transform="rotate(166.15384615384616 50 50)">
  <rect fill="#a2d9bf" height="8" width="8" ry="4" rx="4" y="26" x="46">
    <animate repeatCount="indefinite" begin="-0.5769230769230769s" dur="1.25s" keyTimes="0;1" values="1;0" attributeName="opacity"></animate>
  </rect>
</g><g transform="rotate(193.84615384615384 50 50)">
  <rect fill="#a2d9bf" height="8" width="8" ry="4" rx="4" y="26" x="46">
    <animate repeatCount="indefinite" begin="-0.4807692307692307s" dur="1.25s" keyTimes="0;1" values="1;0" attributeName="opacity"></animate>
  </rect>
</g><g transform="rotate(221.53846153846155 50 50)">
  <rect fill="#a2d9bf" height="8" width="8" ry="4" rx="4" y="26" x="46">
    <animate repeatCount="indefinite" begin="-0.3846153846153846s" dur="1.25s" keyTimes="0;1" values="1;0" attributeName="opacity"></animate>
  </rect>
</g><g transform="rotate(249.23076923076923 50 50)">
  <rect fill="#a2d9bf" height="8" width="8" ry="4" rx="4" y="26" x="46">
    <animate repeatCount="indefinite" begin="-0.28846153846153844s" dur="1.25s" keyTimes="0;1" values="1;0" attributeName="opacity"></animate>
  </rect>
</g><g transform="rotate(276.9230769230769 50 50)">
  <rect fill="#a2d9bf" height="8" width="8" ry="4" rx="4" y="26" x="46">
    <animate repeatCount="indefinite" begin="-0.1923076923076923s" dur="1.25s" keyTimes="0;1" values="1;0" attributeName="opacity"></animate>
  </rect>
</g><g transform="rotate(304.61538461538464 50 50)">
  <rect fill="#a2d9bf" height="8" width="8" ry="4" rx="4" y="26" x="46">
    <animate repeatCount="indefinite" begin="-0.09615384615384615s" dur="1.25s" keyTimes="0;1" values="1;0" attributeName="opacity"></animate>
  </rect>
</g><g transform="rotate(332.3076923076923 50 50)">
  <rect fill="#a2d9bf" height="8" width="8" ry="4" rx="4" y="26" x="46">
    <animate repeatCount="indefinite" begin="0s" dur="1.25s" keyTimes="0;1" values="1;0" attributeName="opacity"></animate>
  </rect>
</g><g></g></g><!-- [ldio] generated by https://loading.io --></svg>