<?xml version="1.0" standalone="no"?>
<!DOCTYPE svg PUBLIC "-//W3C//DTD SVG 20010904//EN"
 "http://www.w3.org/TR/2001/REC-SVG-20010904/DTD/svg10.dtd">
<svg version="1.0" xmlns="http://www.w3.org/2000/svg"
 width="45px" height="90px" viewBox="0 0 354.000000 706.000000"
 preserveAspectRatio="xMidYMid meet">

<g transform="translate(0.000000,706.000000) scale(0.100000,-0.100000)"
fill="#000000" stroke="none">
<path d="M1627 6883 c-16 -18 -17 -77 -17 -849 l0 -829 73 -49 c197 -135 325
-218 364 -237 l43 -21 0 -2405 0 -2405 28 17 c15 10 117 83 227 163 213 155
322 241 448 354 l77 70 0 2684 c0 1522 -4 2684 -9 2684 -5 0 -38 24 -73 53
-74 60 -168 129 -518 379 -60 44 -220 153 -304 208 -29 19 -77 55 -107 79
-133 108 -200 138 -232 104z"/>
<path d="M990 3970 l0 -780 485 0 485 0 0 700 0 700 -385 0 -385 0 0 80 0 80
-100 0 -100 0 0 -780z m580 215 l0 -145 -155 0 -155 0 0 145 0 145 155 0 155
0 0 -145z m0 -575 l0 -150 -155 0 -155 0 0 150 0 150 155 0 155 0 0 -150z"/>
<path d="M560 3905 l0 -295 195 0 195 0 0 295 0 295 -195 0 -195 0 0 -295z"/>
<path d="M1460 2790 l0 -190 245 0 245 0 0 190 0 190 -245 0 -245 0 0 -190z"/>
<path d="M980 1935 l0 -445 -75 0 -75 0 0 83 c0 87 -8 107 -45 107 -37 0 -45
-20 -45 -107 l0 -83 -70 0 -70 0 0 148 c0 155 -4 172 -45 172 -41 0 -45 -17
-45 -172 l0 -148 -105 0 c-101 0 -106 -1 -116 -24 -8 -17 -8 -29 0 -45 11 -19
20 -21 116 -21 l105 0 0 -148 c0 -155 4 -172 45 -172 41 0 45 17 45 172 l0
148 70 0 70 0 0 -83 c0 -87 8 -107 45 -107 37 0 45 20 45 107 l0 83 75 0 75 0
0 -435 0 -435 485 0 485 0 0 925 0 925 -485 0 -485 0 0 -445z m580 40 l0 -145
-155 0 -155 0 0 145 0 145 155 0 155 0 0 -145z m0 -525 l0 -150 -155 0 -155 0
0 150 0 150 155 0 155 0 0 -150z m0 -530 l0 -150 -155 0 -155 0 0 150 0 150
155 0 155 0 0 -150z"/>
</g>
</svg>