<?xml version="1.0" standalone="no"?>
<!DOCTYPE svg PUBLIC "-//W3C//DTD SVG 20010904//EN"
 "http://www.w3.org/TR/2001/REC-SVG-20010904/DTD/svg10.dtd">
<svg version="1.0" xmlns="http://www.w3.org/2000/svg"
 width="90px" height="45px" viewBox="0 0 706.000000 354.000000"
 preserveAspectRatio="xMidYMid meet">

<g transform="translate(0.000000,354.000000) scale(0.100000,-0.100000)"
fill="#000000" stroke="none">
<path d="M1418 3249 c-15 -8 -18 -26 -18 -114 l0 -105 -148 0 c-155 0 -172 -4
-172 -45 0 -41 17 -45 172 -45 l148 0 0 -70 0 -70 -83 0 c-87 0 -107 -8 -107
-45 0 -37 20 -45 107 -45 l83 0 0 -75 0 -75 -435 0 -435 0 0 -485 0 -485 925
0 925 0 0 485 0 485 -445 0 -445 0 0 75 0 75 83 0 c87 0 107 8 107 45 0 37
-20 45 -107 45 l-83 0 0 70 0 70 148 0 c155 0 172 4 172 45 0 41 -17 45 -172
45 l-148 0 0 105 c0 93 -2 105 -19 115 -24 12 -31 12 -53 -1z m-348 -1114 l0
-155 -150 0 -150 0 0 155 0 155 150 0 150 0 0 -155z m530 0 l0 -155 -150 0
-150 0 0 155 0 155 150 0 150 0 0 -155z m520 0 l0 -155 -145 0 -145 0 0 155 0
155 145 0 145 0 0 -155z"/>
<path d="M3610 2785 l0 -195 295 0 295 0 0 195 0 195 -295 0 -295 0 0 -195z"/>
<path d="M3190 2065 l0 -485 700 0 700 0 0 385 0 385 80 0 80 0 0 100 0 100
-780 0 -780 0 0 -485z m570 60 l0 -155 -150 0 -150 0 0 155 0 155 150 0 150 0
0 -155z m570 0 l0 -155 -145 0 -145 0 0 155 0 155 145 0 145 0 0 -155z"/>
<path d="M2600 1835 l0 -245 190 0 190 0 0 245 0 245 -190 0 -190 0 0 -245z"/>
<path d="M5156 1857 c-135 -197 -218 -325 -237 -364 l-21 -43 -2405 0 -2405 0
17 -27 c10 -16 83 -118 163 -228 155 -213 241 -322 354 -448 l70 -77 2684 0
c1522 0 2684 4 2684 9 0 5 24 38 53 73 60 74 129 168 379 518 56 78 167 241
205 302 18 28 44 63 57 77 47 50 134 181 141 212 5 22 2 36 -11 50 -17 18 -39
19 -848 19 l-831 0 -49 -73z"/>
</g>
</svg>