<?xml version="1.0" standalone="no"?>
<!DOCTYPE svg PUBLIC "-//W3C//DTD SVG 20010904//EN"
 "http://www.w3.org/TR/2001/REC-SVG-20010904/DTD/svg10.dtd">
<svg version="1.0" xmlns="http://www.w3.org/2000/svg"
 width="45px" height="180px" viewBox="0 0 354.000000 1410.000000"
 preserveAspectRatio="xMidYMid meet">

<g transform="translate(0.000000,1410.000000) scale(0.100000,-0.100000)"
fill="#000000" stroke="none">
<path d="M1257 13573 c-4 -3 -7 -632 -7 -1397 l0 -1391 23 -14 c12 -8 184 -83
382 -167 l360 -151 3 -5003 2 -5003 33 6 c31 5 90 30 252 107 166 79 271 127
288 133 16 6 17 308 17 6162 0 5853 -1 6156 -17 6162 -10 3 -52 21 -93 40 -41
19 -104 46 -140 60 -36 15 -70 30 -76 34 -6 5 -57 28 -115 53 -192 81 -254
108 -264 116 -5 5 -46 22 -90 40 -44 17 -89 37 -100 44 -11 7 -47 23 -80 36
-33 13 -90 39 -127 57 -36 18 -71 33 -76 33 -6 0 -34 11 -64 25 -52 24 -98 32
-111 18z"/>
<path d="M2920 6857 l0 -6006 33 14 c17 7 98 45 180 83 l147 71 0 5848 0 5848
-92 39 c-51 21 -109 46 -129 56 -20 10 -52 23 -70 28 -19 5 -42 13 -51 17 -17
7 -18 -283 -18 -5998z"/>
<path d="M960 10030 l0 -190 -75 0 -75 0 0 85 c0 103 -16 128 -78 123 -32 -3
-37 -7 -40 -31 -2 -18 2 -29 12 -33 12 -5 16 -22 16 -75 l0 -69 -70 0 -70 0 0
150 c0 146 -1 152 -24 175 -26 26 -67 40 -91 31 -22 -8 -19 -53 5 -66 19 -10
20 -21 20 -150 l0 -140 -75 0 -75 0 0 39 c0 28 -9 54 -31 86 -37 54 -58 67
-107 63 -34 -3 -37 -6 -37 -33 0 -25 5 -32 31 -39 47 -14 64 -58 64 -161 0
-103 -17 -147 -64 -161 -26 -7 -31 -14 -31 -39 0 -27 3 -30 37 -33 49 -4 70 9
107 63 22 32 31 58 31 86 l0 39 75 0 75 0 0 -135 c0 -125 -1 -135 -21 -145
-26 -14 -23 -63 4 -68 29 -6 65 6 87 28 18 18 20 34 20 170 l0 150 70 0 70 0
0 -69 c0 -53 -4 -70 -16 -75 -10 -4 -14 -15 -12 -33 3 -24 8 -28 40 -31 62 -5
78 20 78 123 l0 85 75 0 75 0 0 -457 0 -457 -42 -43 -42 -43 -88 0 c-86 0 -88
1 -88 23 0 29 -45 97 -82 126 -68 54 -186 68 -263 32 -50 -23 -109 -84 -130
-133 -21 -52 -19 -153 4 -203 23 -50 84 -109 133 -130 51 -21 153 -19 203 4
53 24 121 99 136 150 l12 41 82 0 81 0 42 -43 42 -43 0 -102 0 -102 485 0 485
0 0 925 0 925 -485 0 -485 0 0 -190z m580 -215 l0 -145 -155 0 -155 0 0 145 0
145 155 0 155 0 0 -145z m0 -525 l0 -150 -155 0 -155 0 0 150 0 150 155 0 155
0 0 -150z m0 -530 l0 -150 -155 0 -155 0 0 150 0 150 155 0 155 0 0 -150z
m-989 87 c18 -12 44 -38 57 -57 l23 -35 -55 -3 -56 -3 0 -44 0 -45 55 0 c30 0
55 -4 55 -9 0 -15 -45 -74 -73 -95 -40 -30 -153 -30 -193 0 -55 41 -69 70 -69
144 0 76 16 107 75 148 46 31 134 31 181 -1z"/>
<path d="M824 7938 c-4 -6 -10 -47 -12 -91 -6 -101 -27 -127 -103 -127 -58 0
-99 -22 -99 -54 0 -14 46 -67 138 -159 132 -132 162 -153 188 -127 14 14 724
-698 724 -727 0 -13 5 -23 10 -23 6 0 10 -21 10 -46 0 -57 30 -267 39 -274 4
-3 15 -34 25 -70 9 -35 20 -67 24 -70 4 -3 15 -21 25 -40 22 -44 57 -70 102
-77 l35 -6 0 842 0 841 -32 0 c-39 0 -104 -54 -114 -94 -3 -14 -10 -26 -14
-26 -4 0 -16 -30 -26 -67 -10 -38 -21 -70 -25 -73 -10 -7 -39 -216 -39 -275 0
-25 -4 -45 -10 -45 -5 0 -10 -15 -10 -32 0 -31 -14 -19 -264 231 -261 261
-264 264 -249 288 15 23 13 26 -128 168 -141 142 -175 166 -195 133z"/>
<path d="M950 4430 l0 -1440 490 0 490 0 0 1440 0 1440 -490 0 -490 0 0 -1440z
m590 590 l0 -450 -155 0 -155 0 0 450 0 450 155 0 155 0 0 -450z m0 -1250 l0
-450 -155 0 -155 0 0 450 0 450 155 0 155 0 0 -450z"/>
<path d="M270 5360 l0 -260 320 0 320 0 0 260 0 260 -320 0 -320 0 0 -260z"/>
<path d="M520 4365 l0 -485 195 0 195 0 0 485 0 485 -195 0 -195 0 0 -485z"/>
<path d="M520 3395 l0 -295 195 0 195 0 0 295 0 295 -195 0 -195 0 0 -295z"/>
<path d="M950 1960 l0 -770 485 0 485 0 0 700 0 700 -380 0 -380 0 0 70 0 70
-105 0 -105 0 0 -770z m580 225 l0 -145 -155 0 -155 0 0 145 0 145 155 0 155
0 0 -145z m0 -575 l0 -150 -155 0 -155 0 0 150 0 150 155 0 155 0 0 -150z"/>
<path d="M520 1905 l0 -295 195 0 195 0 0 295 0 295 -195 0 -195 0 0 -295z"/>
<path d="M1420 790 l0 -190 245 0 245 0 0 190 0 190 -245 0 -245 0 0 -190z"/>
</g>
</svg>