<?xml version="1.0" standalone="no"?>
<!DOCTYPE svg PUBLIC "-//W3C//DTD SVG 20010904//EN"
 "http://www.w3.org/TR/2001/REC-SVG-20010904/DTD/svg10.dtd">
<svg version="1.0" xmlns="http://www.w3.org/2000/svg"
 width="45px" height="45px" viewBox="0 0 350.000000 350.000000"
 preserveAspectRatio="xMidYMid meet">

<g transform="translate(0.000000,350.000000) scale(0.100000,-0.100000)"
fill="#000000" stroke="none">
<path d="M1070 2590 l0 -160 235 0 235 0 0 160 0 160 -235 0 -235 0 0 -160z"/>
<path d="M840 2020 l0 -380 625 0 625 0 0 275 0 275 70 0 70 0 0 105 0 105
-695 0 -695 0 0 -380z m510 -65 l0 -135 -135 0 -135 0 0 135 0 135 135 0 135
0 0 -135z m510 0 l0 -135 -130 0 -130 0 0 135 0 135 130 0 130 0 0 -135z"/>
<path d="M420 1850 l0 -210 165 0 165 0 0 210 0 210 -165 0 -165 0 0 -210z"/>
<path d="M2405 1680 l-84 -130 -1122 0 -1121 0 17 -27 c46 -72 317 -439 388
-525 l80 -98 1131 0 1132 0 309 435 c171 239 310 443 310 452 0 17 -30 18
-477 21 l-478 2 -85 -130z"/>
</g>
</svg>